STARTFONT 2.1
COMMENT Iskra-1080 character set
COMMENT source: http://bashkiria-2m.narod.ru
FONT --Iskra1080-Regular-R-Normal--8-80-72-72-C-80-ISO10646-1
SIZE 8 72 72
FONTBOUNDINGBOX 8 8 0 0
METRICSSET 2
STARTPROPERTIES 16
PIXEL_SIZE 8
RESOLUTION_X 72
RESOLUTION_Y 72
POINT_SIZE 80
FOUNDRY ""
FAMILY_NAME "Iskra1080"
WEIGHT_NAME "Regular"
RELATIVE_WEIGHT 50
SLANT "R"
SPACING "C"
SETWIDTH_NAME "Normal"
RELATIVE_SETWIDTH 50
ADD_STYLE_NAME ""
AVERAGE_WIDTH 80
CHARSET_REGISTRY "ISO10646"
CHARSET_ENCODING "1"
ENDPROPERTIES
CHARS 224
STARTCHAR space
ENCODING 32
SWIDTH 1000 0
DWIDTH 8 0
BBX 8 8 0 0
VVECTOR 4 8
SWIDTH1 0 -1000
DWIDTH1 0 -8
BITMAP 
00
00
00
00
00
00
00
00
ENDCHAR
STARTCHAR exclam
ENCODING 33
SWIDTH 1000 0
DWIDTH 8 0
BBX 8 8 0 0
VVECTOR 4 8
SWIDTH1 0 -1000
DWIDTH1 0 -8
BITMAP 
08
08
08
08
08
00
08
00
ENDCHAR
STARTCHAR quotedbl
ENCODING 34
SWIDTH 1000 0
DWIDTH 8 0
BBX 8 8 0 0
VVECTOR 4 8
SWIDTH1 0 -1000
DWIDTH1 0 -8
BITMAP 
14
14
14
00
00
00
00
00
ENDCHAR
STARTCHAR numbersign
ENCODING 35
SWIDTH 1000 0
DWIDTH 8 0
BBX 8 8 0 0
VVECTOR 4 8
SWIDTH1 0 -1000
DWIDTH1 0 -8
BITMAP 
14
14
3E
14
3E
14
14
00
ENDCHAR
STARTCHAR dollar
ENCODING 36
SWIDTH 1000 0
DWIDTH 8 0
BBX 8 8 0 0
VVECTOR 4 8
SWIDTH1 0 -1000
DWIDTH1 0 -8
BITMAP 
22
1C
22
22
22
1C
22
00
ENDCHAR
STARTCHAR percent
ENCODING 37
SWIDTH 1000 0
DWIDTH 8 0
BBX 8 8 0 0
VVECTOR 4 8
SWIDTH1 0 -1000
DWIDTH1 0 -8
BITMAP 
30
32
04
08
10
26
06
00
ENDCHAR
STARTCHAR ampersand
ENCODING 38
SWIDTH 1000 0
DWIDTH 8 0
BBX 8 8 0 0
VVECTOR 4 8
SWIDTH1 0 -1000
DWIDTH1 0 -8
BITMAP 
10
28
28
10
2A
24
1A
00
ENDCHAR
STARTCHAR quotesingle
ENCODING 39
SWIDTH 1000 0
DWIDTH 8 0
BBX 8 8 0 0
VVECTOR 4 8
SWIDTH1 0 -1000
DWIDTH1 0 -8
BITMAP 
08
08
08
00
00
00
00
00
ENDCHAR
STARTCHAR parenleft
ENCODING 40
SWIDTH 1000 0
DWIDTH 8 0
BBX 8 8 0 0
VVECTOR 4 8
SWIDTH1 0 -1000
DWIDTH1 0 -8
BITMAP 
08
10
20
20
20
10
08
00
ENDCHAR
STARTCHAR parenright
ENCODING 41
SWIDTH 1000 0
DWIDTH 8 0
BBX 8 8 0 0
VVECTOR 4 8
SWIDTH1 0 -1000
DWIDTH1 0 -8
BITMAP 
08
04
02
02
02
04
08
00
ENDCHAR
STARTCHAR asterisk
ENCODING 42
SWIDTH 1000 0
DWIDTH 8 0
BBX 8 8 0 0
VVECTOR 4 8
SWIDTH1 0 -1000
DWIDTH1 0 -8
BITMAP 
08
2A
1C
08
1C
2A
08
00
ENDCHAR
STARTCHAR plus
ENCODING 43
SWIDTH 1000 0
DWIDTH 8 0
BBX 8 8 0 0
VVECTOR 4 8
SWIDTH1 0 -1000
DWIDTH1 0 -8
BITMAP 
00
08
08
3E
08
08
00
00
ENDCHAR
STARTCHAR comma
ENCODING 44
SWIDTH 1000 0
DWIDTH 8 0
BBX 8 8 0 0
VVECTOR 4 8
SWIDTH1 0 -1000
DWIDTH1 0 -8
BITMAP 
00
00
00
00
18
08
10
00
ENDCHAR
STARTCHAR hyphen
ENCODING 45
SWIDTH 1000 0
DWIDTH 8 0
BBX 8 8 0 0
VVECTOR 4 8
SWIDTH1 0 -1000
DWIDTH1 0 -8
BITMAP 
00
00
00
3E
00
00
00
00
ENDCHAR
STARTCHAR period
ENCODING 46
SWIDTH 1000 0
DWIDTH 8 0
BBX 8 8 0 0
VVECTOR 4 8
SWIDTH1 0 -1000
DWIDTH1 0 -8
BITMAP 
00
00
00
00
00
18
18
00
ENDCHAR
STARTCHAR slash
ENCODING 47
SWIDTH 1000 0
DWIDTH 8 0
BBX 8 8 0 0
VVECTOR 4 8
SWIDTH1 0 -1000
DWIDTH1 0 -8
BITMAP 
00
02
04
08
10
20
00
00
ENDCHAR
STARTCHAR zero
ENCODING 48
SWIDTH 1000 0
DWIDTH 8 0
BBX 8 8 0 0
VVECTOR 4 8
SWIDTH1 0 -1000
DWIDTH1 0 -8
BITMAP 
1C
22
26
2A
32
22
1C
00
ENDCHAR
STARTCHAR one
ENCODING 49
SWIDTH 1000 0
DWIDTH 8 0
BBX 8 8 0 0
VVECTOR 4 8
SWIDTH1 0 -1000
DWIDTH1 0 -8
BITMAP 
08
18
28
08
08
08
3C
00
ENDCHAR
STARTCHAR two
ENCODING 50
SWIDTH 1000 0
DWIDTH 8 0
BBX 8 8 0 0
VVECTOR 4 8
SWIDTH1 0 -1000
DWIDTH1 0 -8
BITMAP 
1C
22
02
0C
10
20
3E
00
ENDCHAR
STARTCHAR three
ENCODING 51
SWIDTH 1000 0
DWIDTH 8 0
BBX 8 8 0 0
VVECTOR 4 8
SWIDTH1 0 -1000
DWIDTH1 0 -8
BITMAP 
3E
02
04
0C
02
22
1C
00
ENDCHAR
STARTCHAR four
ENCODING 52
SWIDTH 1000 0
DWIDTH 8 0
BBX 8 8 0 0
VVECTOR 4 8
SWIDTH1 0 -1000
DWIDTH1 0 -8
BITMAP 
04
0C
14
24
3E
04
04
00
ENDCHAR
STARTCHAR five
ENCODING 53
SWIDTH 1000 0
DWIDTH 8 0
BBX 8 8 0 0
VVECTOR 4 8
SWIDTH1 0 -1000
DWIDTH1 0 -8
BITMAP 
3E
20
3C
02
02
22
1C
00
ENDCHAR
STARTCHAR six
ENCODING 54
SWIDTH 1000 0
DWIDTH 8 0
BBX 8 8 0 0
VVECTOR 4 8
SWIDTH1 0 -1000
DWIDTH1 0 -8
BITMAP 
0C
10
20
3C
22
22
1C
00
ENDCHAR
STARTCHAR seven
ENCODING 55
SWIDTH 1000 0
DWIDTH 8 0
BBX 8 8 0 0
VVECTOR 4 8
SWIDTH1 0 -1000
DWIDTH1 0 -8
BITMAP 
3E
02
04
08
10
10
10
00
ENDCHAR
STARTCHAR eight
ENCODING 56
SWIDTH 1000 0
DWIDTH 8 0
BBX 8 8 0 0
VVECTOR 4 8
SWIDTH1 0 -1000
DWIDTH1 0 -8
BITMAP 
1C
22
22
1C
22
22
1C
00
ENDCHAR
STARTCHAR nine
ENCODING 57
SWIDTH 1000 0
DWIDTH 8 0
BBX 8 8 0 0
VVECTOR 4 8
SWIDTH1 0 -1000
DWIDTH1 0 -8
BITMAP 
1C
22
22
1E
02
04
38
00
ENDCHAR
STARTCHAR colon
ENCODING 58
SWIDTH 1000 0
DWIDTH 8 0
BBX 8 8 0 0
VVECTOR 4 8
SWIDTH1 0 -1000
DWIDTH1 0 -8
BITMAP 
00
18
18
00
18
18
00
00
ENDCHAR
STARTCHAR semicolon
ENCODING 59
SWIDTH 1000 0
DWIDTH 8 0
BBX 8 8 0 0
VVECTOR 4 8
SWIDTH1 0 -1000
DWIDTH1 0 -8
BITMAP 
00
18
18
00
18
08
10
00
ENDCHAR
STARTCHAR less
ENCODING 60
SWIDTH 1000 0
DWIDTH 8 0
BBX 8 8 0 0
VVECTOR 4 8
SWIDTH1 0 -1000
DWIDTH1 0 -8
BITMAP 
04
08
10
20
10
08
04
00
ENDCHAR
STARTCHAR equal
ENCODING 61
SWIDTH 1000 0
DWIDTH 8 0
BBX 8 8 0 0
VVECTOR 4 8
SWIDTH1 0 -1000
DWIDTH1 0 -8
BITMAP 
00
00
3E
00
3E
00
00
00
ENDCHAR
STARTCHAR greater
ENCODING 62
SWIDTH 1000 0
DWIDTH 8 0
BBX 8 8 0 0
VVECTOR 4 8
SWIDTH1 0 -1000
DWIDTH1 0 -8
BITMAP 
10
08
04
02
04
08
10
00
ENDCHAR
STARTCHAR question
ENCODING 63
SWIDTH 1000 0
DWIDTH 8 0
BBX 8 8 0 0
VVECTOR 4 8
SWIDTH1 0 -1000
DWIDTH1 0 -8
BITMAP 
1C
22
04
08
08
00
08
00
ENDCHAR
STARTCHAR at
ENCODING 64
SWIDTH 1000 0
DWIDTH 8 0
BBX 8 8 0 0
VVECTOR 4 8
SWIDTH1 0 -1000
DWIDTH1 0 -8
BITMAP 
1C
22
2A
2E
2C
20
1E
00
ENDCHAR
STARTCHAR A
ENCODING 65
SWIDTH 1000 0
DWIDTH 8 0
BBX 8 8 0 0
VVECTOR 4 8
SWIDTH1 0 -1000
DWIDTH1 0 -8
BITMAP 
08
14
22
22
3E
22
22
00
ENDCHAR
STARTCHAR B
ENCODING 66
SWIDTH 1000 0
DWIDTH 8 0
BBX 8 8 0 0
VVECTOR 4 8
SWIDTH1 0 -1000
DWIDTH1 0 -8
BITMAP 
3C
22
22
3C
22
22
3C
00
ENDCHAR
STARTCHAR C
ENCODING 67
SWIDTH 1000 0
DWIDTH 8 0
BBX 8 8 0 0
VVECTOR 4 8
SWIDTH1 0 -1000
DWIDTH1 0 -8
BITMAP 
1C
22
20
20
20
22
1C
00
ENDCHAR
STARTCHAR D
ENCODING 68
SWIDTH 1000 0
DWIDTH 8 0
BBX 8 8 0 0
VVECTOR 4 8
SWIDTH1 0 -1000
DWIDTH1 0 -8
BITMAP 
3C
22
22
22
22
22
3C
00
ENDCHAR
STARTCHAR E
ENCODING 69
SWIDTH 1000 0
DWIDTH 8 0
BBX 8 8 0 0
VVECTOR 4 8
SWIDTH1 0 -1000
DWIDTH1 0 -8
BITMAP 
3E
20
20
3C
20
20
3E
00
ENDCHAR
STARTCHAR F
ENCODING 70
SWIDTH 1000 0
DWIDTH 8 0
BBX 8 8 0 0
VVECTOR 4 8
SWIDTH1 0 -1000
DWIDTH1 0 -8
BITMAP 
3E
20
20
3C
20
20
20
00
ENDCHAR
STARTCHAR G
ENCODING 71
SWIDTH 1000 0
DWIDTH 8 0
BBX 8 8 0 0
VVECTOR 4 8
SWIDTH1 0 -1000
DWIDTH1 0 -8
BITMAP 
1E
20
20
20
26
22
1E
00
ENDCHAR
STARTCHAR H
ENCODING 72
SWIDTH 1000 0
DWIDTH 8 0
BBX 8 8 0 0
VVECTOR 4 8
SWIDTH1 0 -1000
DWIDTH1 0 -8
BITMAP 
22
22
22
3E
22
22
22
00
ENDCHAR
STARTCHAR I
ENCODING 73
SWIDTH 1000 0
DWIDTH 8 0
BBX 8 8 0 0
VVECTOR 4 8
SWIDTH1 0 -1000
DWIDTH1 0 -8
BITMAP 
1C
08
08
08
08
08
1C
00
ENDCHAR
STARTCHAR J
ENCODING 74
SWIDTH 1000 0
DWIDTH 8 0
BBX 8 8 0 0
VVECTOR 4 8
SWIDTH1 0 -1000
DWIDTH1 0 -8
BITMAP 
02
02
02
02
02
22
1C
00
ENDCHAR
STARTCHAR K
ENCODING 75
SWIDTH 1000 0
DWIDTH 8 0
BBX 8 8 0 0
VVECTOR 4 8
SWIDTH1 0 -1000
DWIDTH1 0 -8
BITMAP 
22
24
28
30
28
24
22
00
ENDCHAR
STARTCHAR L
ENCODING 76
SWIDTH 1000 0
DWIDTH 8 0
BBX 8 8 0 0
VVECTOR 4 8
SWIDTH1 0 -1000
DWIDTH1 0 -8
BITMAP 
20
20
20
20
20
20
3E
00
ENDCHAR
STARTCHAR M
ENCODING 77
SWIDTH 1000 0
DWIDTH 8 0
BBX 8 8 0 0
VVECTOR 4 8
SWIDTH1 0 -1000
DWIDTH1 0 -8
BITMAP 
22
36
2A
2A
22
22
22
00
ENDCHAR
STARTCHAR N
ENCODING 78
SWIDTH 1000 0
DWIDTH 8 0
BBX 8 8 0 0
VVECTOR 4 8
SWIDTH1 0 -1000
DWIDTH1 0 -8
BITMAP 
22
22
32
2A
26
22
22
00
ENDCHAR
STARTCHAR O
ENCODING 79
SWIDTH 1000 0
DWIDTH 8 0
BBX 8 8 0 0
VVECTOR 4 8
SWIDTH1 0 -1000
DWIDTH1 0 -8
BITMAP 
1C
22
22
22
22
22
1C
00
ENDCHAR
STARTCHAR P
ENCODING 80
SWIDTH 1000 0
DWIDTH 8 0
BBX 8 8 0 0
VVECTOR 4 8
SWIDTH1 0 -1000
DWIDTH1 0 -8
BITMAP 
3C
22
22
3C
20
20
20
00
ENDCHAR
STARTCHAR Q
ENCODING 81
SWIDTH 1000 0
DWIDTH 8 0
BBX 8 8 0 0
VVECTOR 4 8
SWIDTH1 0 -1000
DWIDTH1 0 -8
BITMAP 
1C
22
22
22
2A
24
1A
00
ENDCHAR
STARTCHAR R
ENCODING 82
SWIDTH 1000 0
DWIDTH 8 0
BBX 8 8 0 0
VVECTOR 4 8
SWIDTH1 0 -1000
DWIDTH1 0 -8
BITMAP 
3C
22
22
3C
28
24
22
00
ENDCHAR
STARTCHAR S
ENCODING 83
SWIDTH 1000 0
DWIDTH 8 0
BBX 8 8 0 0
VVECTOR 4 8
SWIDTH1 0 -1000
DWIDTH1 0 -8
BITMAP 
1C
22
20
1C
02
22
1C
00
ENDCHAR
STARTCHAR T
ENCODING 84
SWIDTH 1000 0
DWIDTH 8 0
BBX 8 8 0 0
VVECTOR 4 8
SWIDTH1 0 -1000
DWIDTH1 0 -8
BITMAP 
3E
08
08
08
08
08
08
00
ENDCHAR
STARTCHAR U
ENCODING 85
SWIDTH 1000 0
DWIDTH 8 0
BBX 8 8 0 0
VVECTOR 4 8
SWIDTH1 0 -1000
DWIDTH1 0 -8
BITMAP 
22
22
22
22
22
22
1C
00
ENDCHAR
STARTCHAR V
ENCODING 86
SWIDTH 1000 0
DWIDTH 8 0
BBX 8 8 0 0
VVECTOR 4 8
SWIDTH1 0 -1000
DWIDTH1 0 -8
BITMAP 
22
22
22
22
22
14
08
00
ENDCHAR
STARTCHAR W
ENCODING 87
SWIDTH 1000 0
DWIDTH 8 0
BBX 8 8 0 0
VVECTOR 4 8
SWIDTH1 0 -1000
DWIDTH1 0 -8
BITMAP 
22
22
22
2A
2A
36
22
00
ENDCHAR
STARTCHAR X
ENCODING 88
SWIDTH 1000 0
DWIDTH 8 0
BBX 8 8 0 0
VVECTOR 4 8
SWIDTH1 0 -1000
DWIDTH1 0 -8
BITMAP 
22
22
14
08
14
22
22
00
ENDCHAR
STARTCHAR Y
ENCODING 89
SWIDTH 1000 0
DWIDTH 8 0
BBX 8 8 0 0
VVECTOR 4 8
SWIDTH1 0 -1000
DWIDTH1 0 -8
BITMAP 
22
22
14
08
08
08
08
00
ENDCHAR
STARTCHAR Z
ENCODING 90
SWIDTH 1000 0
DWIDTH 8 0
BBX 8 8 0 0
VVECTOR 4 8
SWIDTH1 0 -1000
DWIDTH1 0 -8
BITMAP 
3E
02
04
08
10
20
3E
00
ENDCHAR
STARTCHAR bracketleft
ENCODING 91
SWIDTH 1000 0
DWIDTH 8 0
BBX 8 8 0 0
VVECTOR 4 8
SWIDTH1 0 -1000
DWIDTH1 0 -8
BITMAP 
3E
30
30
30
30
30
3E
00
ENDCHAR
STARTCHAR backslash
ENCODING 92
SWIDTH 1000 0
DWIDTH 8 0
BBX 8 8 0 0
VVECTOR 4 8
SWIDTH1 0 -1000
DWIDTH1 0 -8
BITMAP 
00
20
10
08
04
02
00
00
ENDCHAR
STARTCHAR bracketright
ENCODING 93
SWIDTH 1000 0
DWIDTH 8 0
BBX 8 8 0 0
VVECTOR 4 8
SWIDTH1 0 -1000
DWIDTH1 0 -8
BITMAP 
3E
06
06
06
06
06
3E
00
ENDCHAR
STARTCHAR asciicircum
ENCODING 94
SWIDTH 1000 0
DWIDTH 8 0
BBX 8 8 0 0
VVECTOR 4 8
SWIDTH1 0 -1000
DWIDTH1 0 -8
BITMAP 
00
08
14
22
00
00
00
00
ENDCHAR
STARTCHAR underscore
ENCODING 95
SWIDTH 1000 0
DWIDTH 8 0
BBX 8 8 0 0
VVECTOR 4 8
SWIDTH1 0 -1000
DWIDTH1 0 -8
BITMAP 
00
00
00
00
00
00
00
7F
ENDCHAR
STARTCHAR grave
ENCODING 96
SWIDTH 1000 0
DWIDTH 8 0
BBX 8 8 0 0
VVECTOR 4 8
SWIDTH1 0 -1000
DWIDTH1 0 -8
BITMAP 
10
08
04
00
00
00
00
00
ENDCHAR
STARTCHAR a
ENCODING 97
SWIDTH 1000 0
DWIDTH 8 0
BBX 8 8 0 0
VVECTOR 4 8
SWIDTH1 0 -1000
DWIDTH1 0 -8
BITMAP 
00
00
1C
02
1E
22
1E
00
ENDCHAR
STARTCHAR b
ENCODING 98
SWIDTH 1000 0
DWIDTH 8 0
BBX 8 8 0 0
VVECTOR 4 8
SWIDTH1 0 -1000
DWIDTH1 0 -8
BITMAP 
20
20
3C
22
22
22
3C
00
ENDCHAR
STARTCHAR c
ENCODING 99
SWIDTH 1000 0
DWIDTH 8 0
BBX 8 8 0 0
VVECTOR 4 8
SWIDTH1 0 -1000
DWIDTH1 0 -8
BITMAP 
00
00
1E
20
20
20
1E
00
ENDCHAR
STARTCHAR d
ENCODING 100
SWIDTH 1000 0
DWIDTH 8 0
BBX 8 8 0 0
VVECTOR 4 8
SWIDTH1 0 -1000
DWIDTH1 0 -8
BITMAP 
02
02
1E
22
22
22
1E
00
ENDCHAR
STARTCHAR e
ENCODING 101
SWIDTH 1000 0
DWIDTH 8 0
BBX 8 8 0 0
VVECTOR 4 8
SWIDTH1 0 -1000
DWIDTH1 0 -8
BITMAP 
00
00
1C
22
3E
20
1E
00
ENDCHAR
STARTCHAR f
ENCODING 102
SWIDTH 1000 0
DWIDTH 8 0
BBX 8 8 0 0
VVECTOR 4 8
SWIDTH1 0 -1000
DWIDTH1 0 -8
BITMAP 
0C
12
10
3C
10
10
10
00
ENDCHAR
STARTCHAR g
ENCODING 103
SWIDTH 1000 0
DWIDTH 8 0
BBX 8 8 0 0
VVECTOR 4 8
SWIDTH1 0 -1000
DWIDTH1 0 -8
BITMAP 
00
00
1A
26
22
1E
02
3C
ENDCHAR
STARTCHAR h
ENCODING 104
SWIDTH 1000 0
DWIDTH 8 0
BBX 8 8 0 0
VVECTOR 4 8
SWIDTH1 0 -1000
DWIDTH1 0 -8
BITMAP 
20
20
3C
22
22
22
22
00
ENDCHAR
STARTCHAR i
ENCODING 105
SWIDTH 1000 0
DWIDTH 8 0
BBX 8 8 0 0
VVECTOR 4 8
SWIDTH1 0 -1000
DWIDTH1 0 -8
BITMAP 
08
00
18
08
08
08
1C
00
ENDCHAR
STARTCHAR j
ENCODING 106
SWIDTH 1000 0
DWIDTH 8 0
BBX 8 8 0 0
VVECTOR 4 8
SWIDTH1 0 -1000
DWIDTH1 0 -8
BITMAP 
04
00
0C
04
04
04
24
18
ENDCHAR
STARTCHAR k
ENCODING 107
SWIDTH 1000 0
DWIDTH 8 0
BBX 8 8 0 0
VVECTOR 4 8
SWIDTH1 0 -1000
DWIDTH1 0 -8
BITMAP 
20
20
22
24
38
24
22
00
ENDCHAR
STARTCHAR l
ENCODING 108
SWIDTH 1000 0
DWIDTH 8 0
BBX 8 8 0 0
VVECTOR 4 8
SWIDTH1 0 -1000
DWIDTH1 0 -8
BITMAP 
18
08
08
08
08
08
1C
00
ENDCHAR
STARTCHAR m
ENCODING 109
SWIDTH 1000 0
DWIDTH 8 0
BBX 8 8 0 0
VVECTOR 4 8
SWIDTH1 0 -1000
DWIDTH1 0 -8
BITMAP 
00
00
36
2A
2A
2A
2A
00
ENDCHAR
STARTCHAR n
ENCODING 110
SWIDTH 1000 0
DWIDTH 8 0
BBX 8 8 0 0
VVECTOR 4 8
SWIDTH1 0 -1000
DWIDTH1 0 -8
BITMAP 
00
00
2C
32
22
22
22
00
ENDCHAR
STARTCHAR o
ENCODING 111
SWIDTH 1000 0
DWIDTH 8 0
BBX 8 8 0 0
VVECTOR 4 8
SWIDTH1 0 -1000
DWIDTH1 0 -8
BITMAP 
00
00
1C
22
22
22
1C
00
ENDCHAR
STARTCHAR p
ENCODING 112
SWIDTH 1000 0
DWIDTH 8 0
BBX 8 8 0 0
VVECTOR 4 8
SWIDTH1 0 -1000
DWIDTH1 0 -8
BITMAP 
00
00
3C
22
22
3C
20
20
ENDCHAR
STARTCHAR q
ENCODING 113
SWIDTH 1000 0
DWIDTH 8 0
BBX 8 8 0 0
VVECTOR 4 8
SWIDTH1 0 -1000
DWIDTH1 0 -8
BITMAP 
00
00
1E
22
22
1E
02
02
ENDCHAR
STARTCHAR r
ENCODING 114
SWIDTH 1000 0
DWIDTH 8 0
BBX 8 8 0 0
VVECTOR 4 8
SWIDTH1 0 -1000
DWIDTH1 0 -8
BITMAP 
00
00
2E
30
20
20
20
00
ENDCHAR
STARTCHAR s
ENCODING 115
SWIDTH 1000 0
DWIDTH 8 0
BBX 8 8 0 0
VVECTOR 4 8
SWIDTH1 0 -1000
DWIDTH1 0 -8
BITMAP 
00
00
1E
20
1C
02
3C
00
ENDCHAR
STARTCHAR t
ENCODING 116
SWIDTH 1000 0
DWIDTH 8 0
BBX 8 8 0 0
VVECTOR 4 8
SWIDTH1 0 -1000
DWIDTH1 0 -8
BITMAP 
10
10
3C
10
10
12
0C
00
ENDCHAR
STARTCHAR u
ENCODING 117
SWIDTH 1000 0
DWIDTH 8 0
BBX 8 8 0 0
VVECTOR 4 8
SWIDTH1 0 -1000
DWIDTH1 0 -8
BITMAP 
00
00
22
22
22
26
1A
00
ENDCHAR
STARTCHAR v
ENCODING 118
SWIDTH 1000 0
DWIDTH 8 0
BBX 8 8 0 0
VVECTOR 4 8
SWIDTH1 0 -1000
DWIDTH1 0 -8
BITMAP 
00
00
22
22
22
14
08
00
ENDCHAR
STARTCHAR w
ENCODING 119
SWIDTH 1000 0
DWIDTH 8 0
BBX 8 8 0 0
VVECTOR 4 8
SWIDTH1 0 -1000
DWIDTH1 0 -8
BITMAP 
00
00
22
22
2A
2A
36
00
ENDCHAR
STARTCHAR x
ENCODING 120
SWIDTH 1000 0
DWIDTH 8 0
BBX 8 8 0 0
VVECTOR 4 8
SWIDTH1 0 -1000
DWIDTH1 0 -8
BITMAP 
00
00
22
14
08
14
22
00
ENDCHAR
STARTCHAR y
ENCODING 121
SWIDTH 1000 0
DWIDTH 8 0
BBX 8 8 0 0
VVECTOR 4 8
SWIDTH1 0 -1000
DWIDTH1 0 -8
BITMAP 
00
00
22
22
22
1E
02
1C
ENDCHAR
STARTCHAR z
ENCODING 122
SWIDTH 1000 0
DWIDTH 8 0
BBX 8 8 0 0
VVECTOR 4 8
SWIDTH1 0 -1000
DWIDTH1 0 -8
BITMAP 
00
00
3E
04
08
10
3E
00
ENDCHAR
STARTCHAR braceleft
ENCODING 123
SWIDTH 1000 0
DWIDTH 8 0
BBX 8 8 0 0
VVECTOR 4 8
SWIDTH1 0 -1000
DWIDTH1 0 -8
BITMAP 
0E
18
18
30
18
18
0E
00
ENDCHAR
STARTCHAR bar
ENCODING 124
SWIDTH 1000 0
DWIDTH 8 0
BBX 8 8 0 0
VVECTOR 4 8
SWIDTH1 0 -1000
DWIDTH1 0 -8
BITMAP 
08
08
08
00
08
08
08
00
ENDCHAR
STARTCHAR braceright
ENCODING 125
SWIDTH 1000 0
DWIDTH 8 0
BBX 8 8 0 0
VVECTOR 4 8
SWIDTH1 0 -1000
DWIDTH1 0 -8
BITMAP 
38
0C
0C
06
0C
0C
38
00
ENDCHAR
STARTCHAR asciitilde
ENCODING 126
SWIDTH 1000 0
DWIDTH 8 0
BBX 8 8 0 0
VVECTOR 4 8
SWIDTH1 0 -1000
DWIDTH1 0 -8
BITMAP 
7F
00
00
00
00
00
00
00
ENDCHAR
STARTCHAR uni007F
ENCODING 127
SWIDTH 1000 0
DWIDTH 8 0
BBX 8 8 0 0
VVECTOR 4 8
SWIDTH1 0 -1000
DWIDTH1 0 -8
BITMAP 
36
36
36
00
00
22
1C
00
ENDCHAR
STARTCHAR uni0080
ENCODING 128
SWIDTH 1000 0
DWIDTH 8 0
BBX 8 8 0 0
VVECTOR 4 8
SWIDTH1 0 -1000
DWIDTH1 0 -8
BITMAP 
14
14
17
10
17
14
14
14
ENDCHAR
STARTCHAR uni0081
ENCODING 129
SWIDTH 1000 0
DWIDTH 8 0
BBX 8 8 0 0
VVECTOR 4 8
SWIDTH1 0 -1000
DWIDTH1 0 -8
BITMAP 
00
00
FF
00
FF
00
00
00
ENDCHAR
STARTCHAR uni0082
ENCODING 130
SWIDTH 1000 0
DWIDTH 8 0
BBX 8 8 0 0
VVECTOR 4 8
SWIDTH1 0 -1000
DWIDTH1 0 -8
BITMAP 
14
14
FF
00
FF
14
14
14
ENDCHAR
STARTCHAR uni0083
ENCODING 131
SWIDTH 1000 0
DWIDTH 8 0
BBX 8 8 0 0
VVECTOR 4 8
SWIDTH1 0 -1000
DWIDTH1 0 -8
BITMAP 
08
08
08
08
08
08
08
08
ENDCHAR
STARTCHAR uni0084
ENCODING 132
SWIDTH 1000 0
DWIDTH 8 0
BBX 8 8 0 0
VVECTOR 4 8
SWIDTH1 0 -1000
DWIDTH1 0 -8
BITMAP 
08
08
08
08
F8
08
08
08
ENDCHAR
STARTCHAR uni0085
ENCODING 133
SWIDTH 1000 0
DWIDTH 8 0
BBX 8 8 0 0
VVECTOR 4 8
SWIDTH1 0 -1000
DWIDTH1 0 -8
BITMAP 
00
00
FF
00
FF
14
14
14
ENDCHAR
STARTCHAR uni0086
ENCODING 134
SWIDTH 1000 0
DWIDTH 8 0
BBX 8 8 0 0
VVECTOR 4 8
SWIDTH1 0 -1000
DWIDTH1 0 -8
BITMAP 
00
00
1F
10
17
14
14
14
ENDCHAR
STARTCHAR uni0087
ENCODING 135
SWIDTH 1000 0
DWIDTH 8 0
BBX 8 8 0 0
VVECTOR 4 8
SWIDTH1 0 -1000
DWIDTH1 0 -8
BITMAP 
14
14
F4
04
FC
00
00
00
ENDCHAR
STARTCHAR uni0088
ENCODING 136
SWIDTH 1000 0
DWIDTH 8 0
BBX 8 8 0 0
VVECTOR 4 8
SWIDTH1 0 -1000
DWIDTH1 0 -8
BITMAP 
14
14
17
10
1F
00
00
00
ENDCHAR
STARTCHAR uni0089
ENCODING 137
SWIDTH 1000 0
DWIDTH 8 0
BBX 8 8 0 0
VVECTOR 4 8
SWIDTH1 0 -1000
DWIDTH1 0 -8
BITMAP 
14
14
F4
04
F4
14
14
14
ENDCHAR
STARTCHAR uni008A
ENCODING 138
SWIDTH 1000 0
DWIDTH 8 0
BBX 8 8 0 0
VVECTOR 4 8
SWIDTH1 0 -1000
DWIDTH1 0 -8
BITMAP 
14
14
14
14
14
14
14
14
ENDCHAR
STARTCHAR uni008B
ENCODING 139
SWIDTH 1000 0
DWIDTH 8 0
BBX 8 8 0 0
VVECTOR 4 8
SWIDTH1 0 -1000
DWIDTH1 0 -8
BITMAP 
00
00
FC
04
F4
14
14
14
ENDCHAR
STARTCHAR uni008C
ENCODING 140
SWIDTH 1000 0
DWIDTH 8 0
BBX 8 8 0 0
VVECTOR 4 8
SWIDTH1 0 -1000
DWIDTH1 0 -8
BITMAP 
08
08
F8
08
F8
08
08
08
ENDCHAR
STARTCHAR uni008D
ENCODING 141
SWIDTH 1000 0
DWIDTH 8 0
BBX 8 8 0 0
VVECTOR 4 8
SWIDTH1 0 -1000
DWIDTH1 0 -8
BITMAP 
08
08
0F
08
0F
08
08
08
ENDCHAR
STARTCHAR uni008E
ENCODING 142
SWIDTH 1000 0
DWIDTH 8 0
BBX 8 8 0 0
VVECTOR 4 8
SWIDTH1 0 -1000
DWIDTH1 0 -8
BITMAP 
14
14
14
14
FC
14
14
14
ENDCHAR
STARTCHAR uni008F
ENCODING 143
SWIDTH 1000 0
DWIDTH 8 0
BBX 8 8 0 0
VVECTOR 4 8
SWIDTH1 0 -1000
DWIDTH1 0 -8
BITMAP 
00
00
00
00
F8
08
08
08
ENDCHAR
STARTCHAR uni0090
ENCODING 144
SWIDTH 1000 0
DWIDTH 8 0
BBX 8 8 0 0
VVECTOR 4 8
SWIDTH1 0 -1000
DWIDTH1 0 -8
BITMAP 
08
08
08
08
0F
00
00
00
ENDCHAR
STARTCHAR uni0091
ENCODING 145
SWIDTH 1000 0
DWIDTH 8 0
BBX 8 8 0 0
VVECTOR 4 8
SWIDTH1 0 -1000
DWIDTH1 0 -8
BITMAP 
08
08
08
08
FF
00
00
00
ENDCHAR
STARTCHAR uni0092
ENCODING 146
SWIDTH 1000 0
DWIDTH 8 0
BBX 8 8 0 0
VVECTOR 4 8
SWIDTH1 0 -1000
DWIDTH1 0 -8
BITMAP 
00
00
00
00
FF
08
08
08
ENDCHAR
STARTCHAR uni0093
ENCODING 147
SWIDTH 1000 0
DWIDTH 8 0
BBX 8 8 0 0
VVECTOR 4 8
SWIDTH1 0 -1000
DWIDTH1 0 -8
BITMAP 
08
08
08
08
0F
08
08
08
ENDCHAR
STARTCHAR uni0094
ENCODING 148
SWIDTH 1000 0
DWIDTH 8 0
BBX 8 8 0 0
VVECTOR 4 8
SWIDTH1 0 -1000
DWIDTH1 0 -8
BITMAP 
00
00
00
00
FF
00
00
00
ENDCHAR
STARTCHAR uni0095
ENCODING 149
SWIDTH 1000 0
DWIDTH 8 0
BBX 8 8 0 0
VVECTOR 4 8
SWIDTH1 0 -1000
DWIDTH1 0 -8
BITMAP 
08
08
08
08
FF
08
08
08
ENDCHAR
STARTCHAR uni0096
ENCODING 150
SWIDTH 1000 0
DWIDTH 8 0
BBX 8 8 0 0
VVECTOR 4 8
SWIDTH1 0 -1000
DWIDTH1 0 -8
BITMAP 
1C
00
1C
22
22
22
1C
00
ENDCHAR
STARTCHAR uni0097
ENCODING 151
SWIDTH 1000 0
DWIDTH 8 0
BBX 8 8 0 0
VVECTOR 4 8
SWIDTH1 0 -1000
DWIDTH1 0 -8
BITMAP 
22
08
14
22
3E
22
22
00
ENDCHAR
STARTCHAR uni0098
ENCODING 152
SWIDTH 1000 0
DWIDTH 8 0
BBX 8 8 0 0
VVECTOR 4 8
SWIDTH1 0 -1000
DWIDTH1 0 -8
BITMAP 
22
00
1C
22
22
22
1C
00
ENDCHAR
STARTCHAR uni0099
ENCODING 153
SWIDTH 1000 0
DWIDTH 8 0
BBX 8 8 0 0
VVECTOR 4 8
SWIDTH1 0 -1000
DWIDTH1 0 -8
BITMAP 
22
00
22
22
22
22
1C
00
ENDCHAR
STARTCHAR uni009A
ENCODING 154
SWIDTH 1000 0
DWIDTH 8 0
BBX 8 8 0 0
VVECTOR 4 8
SWIDTH1 0 -1000
DWIDTH1 0 -8
BITMAP 
00
1C
00
1C
22
22
1C
00
ENDCHAR
STARTCHAR uni009B
ENCODING 155
SWIDTH 1000 0
DWIDTH 8 0
BBX 8 8 0 0
VVECTOR 4 8
SWIDTH1 0 -1000
DWIDTH1 0 -8
BITMAP 
14
00
1C
02
1E
22
1E
00
ENDCHAR
STARTCHAR uni009C
ENCODING 156
SWIDTH 1000 0
DWIDTH 8 0
BBX 8 8 0 0
VVECTOR 4 8
SWIDTH1 0 -1000
DWIDTH1 0 -8
BITMAP 
00
14
00
1C
22
22
1C
00
ENDCHAR
STARTCHAR uni009D
ENCODING 157
SWIDTH 1000 0
DWIDTH 8 0
BBX 8 8 0 0
VVECTOR 4 8
SWIDTH1 0 -1000
DWIDTH1 0 -8
BITMAP 
00
14
00
22
22
26
1A
00
ENDCHAR
STARTCHAR uni009E
ENCODING 158
SWIDTH 1000 0
DWIDTH 8 0
BBX 8 8 0 0
VVECTOR 4 8
SWIDTH1 0 -1000
DWIDTH1 0 -8
BITMAP 
14
14
FF
00
FF
14
14
14
ENDCHAR
STARTCHAR uni009F
ENCODING 159
SWIDTH 1000 0
DWIDTH 8 0
BBX 8 8 0 0
VVECTOR 4 8
SWIDTH1 0 -1000
DWIDTH1 0 -8
BITMAP 
00
00
00
00
FC
14
14
14
ENDCHAR
STARTCHAR uni00A0
ENCODING 160
SWIDTH 1000 0
DWIDTH 8 0
BBX 8 8 0 0
VVECTOR 4 8
SWIDTH1 0 -1000
DWIDTH1 0 -8
BITMAP 
00
00
F8
08
F8
08
08
08
ENDCHAR
STARTCHAR exclamdown
ENCODING 161
SWIDTH 1000 0
DWIDTH 8 0
BBX 8 8 0 0
VVECTOR 4 8
SWIDTH1 0 -1000
DWIDTH1 0 -8
BITMAP 
14
00
3E
20
3C
20
3E
00
ENDCHAR
STARTCHAR cent
ENCODING 162
SWIDTH 1000 0
DWIDTH 8 0
BBX 8 8 0 0
VVECTOR 4 8
SWIDTH1 0 -1000
DWIDTH1 0 -8
BITMAP 
14
14
14
14
FC
00
00
00
ENDCHAR
STARTCHAR sterling
ENCODING 163
SWIDTH 1000 0
DWIDTH 8 0
BBX 8 8 0 0
VVECTOR 4 8
SWIDTH1 0 -1000
DWIDTH1 0 -8
BITMAP 
08
08
F8
08
F8
00
00
00
ENDCHAR
STARTCHAR currency
ENCODING 164
SWIDTH 1000 0
DWIDTH 8 0
BBX 8 8 0 0
VVECTOR 4 8
SWIDTH1 0 -1000
DWIDTH1 0 -8
BITMAP 
08
08
0F
08
0F
08
08
08
ENDCHAR
STARTCHAR yen
ENCODING 165
SWIDTH 1000 0
DWIDTH 8 0
BBX 8 8 0 0
VVECTOR 4 8
SWIDTH1 0 -1000
DWIDTH1 0 -8
BITMAP 
14
14
14
14
FF
00
00
00
ENDCHAR
STARTCHAR brokenbar
ENCODING 166
SWIDTH 1000 0
DWIDTH 8 0
BBX 8 8 0 0
VVECTOR 4 8
SWIDTH1 0 -1000
DWIDTH1 0 -8
BITMAP 
08
08
08
FF
00
FF
00
00
ENDCHAR
STARTCHAR section
ENCODING 167
SWIDTH 1000 0
DWIDTH 8 0
BBX 8 8 0 0
VVECTOR 4 8
SWIDTH1 0 -1000
DWIDTH1 0 -8
BITMAP 
00
00
00
FF
00
FF
08
08
ENDCHAR
STARTCHAR dieresis
ENCODING 168
SWIDTH 1000 0
DWIDTH 8 0
BBX 8 8 0 0
VVECTOR 4 8
SWIDTH1 0 -1000
DWIDTH1 0 -8
BITMAP 
00
00
00
00
FF
14
14
14
ENDCHAR
STARTCHAR copyright
ENCODING 169
SWIDTH 1000 0
DWIDTH 8 0
BBX 8 8 0 0
VVECTOR 4 8
SWIDTH1 0 -1000
DWIDTH1 0 -8
BITMAP 
08
08
08
08
F8
00
00
00
ENDCHAR
STARTCHAR ordfeminine
ENCODING 170
SWIDTH 1000 0
DWIDTH 8 0
BBX 8 8 0 0
VVECTOR 4 8
SWIDTH1 0 -1000
DWIDTH1 0 -8
BITMAP 
00
00
00
00
0F
08
08
08
ENDCHAR
STARTCHAR guillemotleft
ENCODING 171
SWIDTH 1000 0
DWIDTH 8 0
BBX 8 8 0 0
VVECTOR 4 8
SWIDTH1 0 -1000
DWIDTH1 0 -8
BITMAP 
14
14
14
14
1F
00
00
00
ENDCHAR
STARTCHAR logicalnot
ENCODING 172
SWIDTH 1000 0
DWIDTH 8 0
BBX 8 8 0 0
VVECTOR 4 8
SWIDTH1 0 -1000
DWIDTH1 0 -8
BITMAP 
08
08
08
0F
08
0F
00
00
ENDCHAR
STARTCHAR uni00AD
ENCODING 173
SWIDTH 1000 0
DWIDTH 8 0
BBX 8 8 0 0
VVECTOR 4 8
SWIDTH1 0 -1000
DWIDTH1 0 -8
BITMAP 
00
00
00
0F
08
0F
08
08
ENDCHAR
STARTCHAR registered
ENCODING 174
SWIDTH 1000 0
DWIDTH 8 0
BBX 8 8 0 0
VVECTOR 4 8
SWIDTH1 0 -1000
DWIDTH1 0 -8
BITMAP 
00
00
00
00
1F
14
14
14
ENDCHAR
STARTCHAR macron
ENCODING 175
SWIDTH 1000 0
DWIDTH 8 0
BBX 8 8 0 0
VVECTOR 4 8
SWIDTH1 0 -1000
DWIDTH1 0 -8
BITMAP 
08
08
08
FF
08
FF
08
08
ENDCHAR
STARTCHAR degree
ENCODING 176
SWIDTH 1000 0
DWIDTH 8 0
BBX 8 8 0 0
VVECTOR 4 8
SWIDTH1 0 -1000
DWIDTH1 0 -8
BITMAP 
08
14
22
22
3E
22
22
00
ENDCHAR
STARTCHAR plusminus
ENCODING 177
SWIDTH 1000 0
DWIDTH 8 0
BBX 8 8 0 0
VVECTOR 4 8
SWIDTH1 0 -1000
DWIDTH1 0 -8
BITMAP 
3E
20
20
3C
22
22
3C
00
ENDCHAR
STARTCHAR uni00B2
ENCODING 178
SWIDTH 1000 0
DWIDTH 8 0
BBX 8 8 0 0
VVECTOR 4 8
SWIDTH1 0 -1000
DWIDTH1 0 -8
BITMAP 
3C
22
22
3C
22
22
3C
00
ENDCHAR
STARTCHAR uni00B3
ENCODING 179
SWIDTH 1000 0
DWIDTH 8 0
BBX 8 8 0 0
VVECTOR 4 8
SWIDTH1 0 -1000
DWIDTH1 0 -8
BITMAP 
3E
22
20
20
20
20
20
00
ENDCHAR
STARTCHAR acute
ENCODING 180
SWIDTH 1000 0
DWIDTH 8 0
BBX 8 8 0 0
VVECTOR 4 8
SWIDTH1 0 -1000
DWIDTH1 0 -8
BITMAP 
0C
14
14
14
14
3E
22
00
ENDCHAR
STARTCHAR mu
ENCODING 181
SWIDTH 1000 0
DWIDTH 8 0
BBX 8 8 0 0
VVECTOR 4 8
SWIDTH1 0 -1000
DWIDTH1 0 -8
BITMAP 
3E
20
20
3C
20
20
3E
00
ENDCHAR
STARTCHAR paragraph
ENCODING 182
SWIDTH 1000 0
DWIDTH 8 0
BBX 8 8 0 0
VVECTOR 4 8
SWIDTH1 0 -1000
DWIDTH1 0 -8
BITMAP 
2A
2A
2A
1C
2A
2A
2A
00
ENDCHAR
STARTCHAR periodcentered
ENCODING 183
SWIDTH 1000 0
DWIDTH 8 0
BBX 8 8 0 0
VVECTOR 4 8
SWIDTH1 0 -1000
DWIDTH1 0 -8
BITMAP 
1C
22
02
0C
02
22
1C
00
ENDCHAR
STARTCHAR cedilla
ENCODING 184
SWIDTH 1000 0
DWIDTH 8 0
BBX 8 8 0 0
VVECTOR 4 8
SWIDTH1 0 -1000
DWIDTH1 0 -8
BITMAP 
22
22
26
2A
32
22
22
00
ENDCHAR
STARTCHAR uni00B9
ENCODING 185
SWIDTH 1000 0
DWIDTH 8 0
BBX 8 8 0 0
VVECTOR 4 8
SWIDTH1 0 -1000
DWIDTH1 0 -8
BITMAP 
14
08
22
26
2A
32
22
00
ENDCHAR
STARTCHAR ordmasculine
ENCODING 186
SWIDTH 1000 0
DWIDTH 8 0
BBX 8 8 0 0
VVECTOR 4 8
SWIDTH1 0 -1000
DWIDTH1 0 -8
BITMAP 
22
24
28
30
28
24
22
00
ENDCHAR
STARTCHAR guillemotright
ENCODING 187
SWIDTH 1000 0
DWIDTH 8 0
BBX 8 8 0 0
VVECTOR 4 8
SWIDTH1 0 -1000
DWIDTH1 0 -8
BITMAP 
06
0A
12
12
12
12
22
00
ENDCHAR
STARTCHAR onequarter
ENCODING 188
SWIDTH 1000 0
DWIDTH 8 0
BBX 8 8 0 0
VVECTOR 4 8
SWIDTH1 0 -1000
DWIDTH1 0 -8
BITMAP 
22
36
2A
22
22
22
22
00
ENDCHAR
STARTCHAR onehalf
ENCODING 189
SWIDTH 1000 0
DWIDTH 8 0
BBX 8 8 0 0
VVECTOR 4 8
SWIDTH1 0 -1000
DWIDTH1 0 -8
BITMAP 
22
22
22
3E
22
22
22
00
ENDCHAR
STARTCHAR threequarters
ENCODING 190
SWIDTH 1000 0
DWIDTH 8 0
BBX 8 8 0 0
VVECTOR 4 8
SWIDTH1 0 -1000
DWIDTH1 0 -8
BITMAP 
1C
22
22
22
22
22
1C
00
ENDCHAR
STARTCHAR questiondown
ENCODING 191
SWIDTH 1000 0
DWIDTH 8 0
BBX 8 8 0 0
VVECTOR 4 8
SWIDTH1 0 -1000
DWIDTH1 0 -8
BITMAP 
3E
22
22
22
22
22
22
00
ENDCHAR
STARTCHAR Agrave
ENCODING 192
SWIDTH 1000 0
DWIDTH 8 0
BBX 8 8 0 0
VVECTOR 4 8
SWIDTH1 0 -1000
DWIDTH1 0 -8
BITMAP 
3C
22
22
3C
20
20
20
00
ENDCHAR
STARTCHAR Aacute
ENCODING 193
SWIDTH 1000 0
DWIDTH 8 0
BBX 8 8 0 0
VVECTOR 4 8
SWIDTH1 0 -1000
DWIDTH1 0 -8
BITMAP 
1C
22
20
20
20
22
1C
00
ENDCHAR
STARTCHAR Acircumflex
ENCODING 194
SWIDTH 1000 0
DWIDTH 8 0
BBX 8 8 0 0
VVECTOR 4 8
SWIDTH1 0 -1000
DWIDTH1 0 -8
BITMAP 
3E
08
08
08
08
08
08
00
ENDCHAR
STARTCHAR Atilde
ENCODING 195
SWIDTH 1000 0
DWIDTH 8 0
BBX 8 8 0 0
VVECTOR 4 8
SWIDTH1 0 -1000
DWIDTH1 0 -8
BITMAP 
22
22
22
1E
02
22
1C
00
ENDCHAR
STARTCHAR Adieresis
ENCODING 196
SWIDTH 1000 0
DWIDTH 8 0
BBX 8 8 0 0
VVECTOR 4 8
SWIDTH1 0 -1000
DWIDTH1 0 -8
BITMAP 
08
1C
2A
2A
2A
1C
08
00
ENDCHAR
STARTCHAR Aring
ENCODING 197
SWIDTH 1000 0
DWIDTH 8 0
BBX 8 8 0 0
VVECTOR 4 8
SWIDTH1 0 -1000
DWIDTH1 0 -8
BITMAP 
22
22
14
08
14
22
22
00
ENDCHAR
STARTCHAR AE
ENCODING 198
SWIDTH 1000 0
DWIDTH 8 0
BBX 8 8 0 0
VVECTOR 4 8
SWIDTH1 0 -1000
DWIDTH1 0 -8
BITMAP 
24
24
24
24
24
3E
02
00
ENDCHAR
STARTCHAR Ccedilla
ENCODING 199
SWIDTH 1000 0
DWIDTH 8 0
BBX 8 8 0 0
VVECTOR 4 8
SWIDTH1 0 -1000
DWIDTH1 0 -8
BITMAP 
22
22
22
1E
02
02
02
00
ENDCHAR
STARTCHAR Egrave
ENCODING 200
SWIDTH 1000 0
DWIDTH 8 0
BBX 8 8 0 0
VVECTOR 4 8
SWIDTH1 0 -1000
DWIDTH1 0 -8
BITMAP 
2A
2A
2A
2A
2A
2A
3E
00
ENDCHAR
STARTCHAR Eacute
ENCODING 201
SWIDTH 1000 0
DWIDTH 8 0
BBX 8 8 0 0
VVECTOR 4 8
SWIDTH1 0 -1000
DWIDTH1 0 -8
BITMAP 
2A
2A
2A
2A
2A
3E
02
00
ENDCHAR
STARTCHAR Ecircumflex
ENCODING 202
SWIDTH 1000 0
DWIDTH 8 0
BBX 8 8 0 0
VVECTOR 4 8
SWIDTH1 0 -1000
DWIDTH1 0 -8
BITMAP 
30
10
10
1C
12
12
1C
00
ENDCHAR
STARTCHAR Edieresis
ENCODING 203
SWIDTH 1000 0
DWIDTH 8 0
BBX 8 8 0 0
VVECTOR 4 8
SWIDTH1 0 -1000
DWIDTH1 0 -8
BITMAP 
22
22
32
2A
2A
2A
32
00
ENDCHAR
STARTCHAR Igrave
ENCODING 204
SWIDTH 1000 0
DWIDTH 8 0
BBX 8 8 0 0
VVECTOR 4 8
SWIDTH1 0 -1000
DWIDTH1 0 -8
BITMAP 
20
20
38
24
22
24
38
00
ENDCHAR
STARTCHAR Iacute
ENCODING 205
SWIDTH 1000 0
DWIDTH 8 0
BBX 8 8 0 0
VVECTOR 4 8
SWIDTH1 0 -1000
DWIDTH1 0 -8
BITMAP 
1C
22
02
1E
02
22
1C
00
ENDCHAR
STARTCHAR Icircumflex
ENCODING 206
SWIDTH 1000 0
DWIDTH 8 0
BBX 8 8 0 0
VVECTOR 4 8
SWIDTH1 0 -1000
DWIDTH1 0 -8
BITMAP 
2E
2A
2A
3A
2A
2A
2E
00
ENDCHAR
STARTCHAR Idieresis
ENCODING 207
SWIDTH 1000 0
DWIDTH 8 0
BBX 8 8 0 0
VVECTOR 4 8
SWIDTH1 0 -1000
DWIDTH1 0 -8
BITMAP 
1E
22
22
1E
0A
12
22
00
ENDCHAR
STARTCHAR Eth
ENCODING 208
SWIDTH 1000 0
DWIDTH 8 0
BBX 8 8 0 0
VVECTOR 4 8
SWIDTH1 0 -1000
DWIDTH1 0 -8
BITMAP 
00
00
1C
02
1E
22
1E
00
ENDCHAR
STARTCHAR Ntilde
ENCODING 209
SWIDTH 1000 0
DWIDTH 8 0
BBX 8 8 0 0
VVECTOR 4 8
SWIDTH1 0 -1000
DWIDTH1 0 -8
BITMAP 
00
00
3E
20
3C
22
3C
00
ENDCHAR
STARTCHAR Ograve
ENCODING 210
SWIDTH 1000 0
DWIDTH 8 0
BBX 8 8 0 0
VVECTOR 4 8
SWIDTH1 0 -1000
DWIDTH1 0 -8
BITMAP 
00
00
3C
22
3C
22
3C
00
ENDCHAR
STARTCHAR Oacute
ENCODING 211
SWIDTH 1000 0
DWIDTH 8 0
BBX 8 8 0 0
VVECTOR 4 8
SWIDTH1 0 -1000
DWIDTH1 0 -8
BITMAP 
00
00
3E
22
20
20
20
00
ENDCHAR
STARTCHAR Ocircumflex
ENCODING 212
SWIDTH 1000 0
DWIDTH 8 0
BBX 8 8 0 0
VVECTOR 4 8
SWIDTH1 0 -1000
DWIDTH1 0 -8
BITMAP 
00
00
0C
14
14
14
3E
22
ENDCHAR
STARTCHAR Otilde
ENCODING 213
SWIDTH 1000 0
DWIDTH 8 0
BBX 8 8 0 0
VVECTOR 4 8
SWIDTH1 0 -1000
DWIDTH1 0 -8
BITMAP 
00
00
1C
22
3E
20
1E
00
ENDCHAR
STARTCHAR Odieresis
ENCODING 214
SWIDTH 1000 0
DWIDTH 8 0
BBX 8 8 0 0
VVECTOR 4 8
SWIDTH1 0 -1000
DWIDTH1 0 -8
BITMAP 
00
00
2A
2A
1C
2A
2A
00
ENDCHAR
STARTCHAR multiply
ENCODING 215
SWIDTH 1000 0
DWIDTH 8 0
BBX 8 8 0 0
VVECTOR 4 8
SWIDTH1 0 -1000
DWIDTH1 0 -8
BITMAP 
00
00
1C
22
04
02
22
1C
ENDCHAR
STARTCHAR Oslash
ENCODING 216
SWIDTH 1000 0
DWIDTH 8 0
BBX 8 8 0 0
VVECTOR 4 8
SWIDTH1 0 -1000
DWIDTH1 0 -8
BITMAP 
00
00
22
26
2A
32
22
00
ENDCHAR
STARTCHAR Ugrave
ENCODING 217
SWIDTH 1000 0
DWIDTH 8 0
BBX 8 8 0 0
VVECTOR 4 8
SWIDTH1 0 -1000
DWIDTH1 0 -8
BITMAP 
00
14
08
22
26
2A
32
00
ENDCHAR
STARTCHAR Uacute
ENCODING 218
SWIDTH 1000 0
DWIDTH 8 0
BBX 8 8 0 0
VVECTOR 4 8
SWIDTH1 0 -1000
DWIDTH1 0 -8
BITMAP 
00
00
22
24
38
24
22
00
ENDCHAR
STARTCHAR Ucircumflex
ENCODING 219
SWIDTH 1000 0
DWIDTH 8 0
BBX 8 8 0 0
VVECTOR 4 8
SWIDTH1 0 -1000
DWIDTH1 0 -8
BITMAP 
00
00
0E
0A
0A
12
22
00
ENDCHAR
STARTCHAR Udieresis
ENCODING 220
SWIDTH 1000 0
DWIDTH 8 0
BBX 8 8 0 0
VVECTOR 4 8
SWIDTH1 0 -1000
DWIDTH1 0 -8
BITMAP 
00
00
22
36
2A
22
22
00
ENDCHAR
STARTCHAR Yacute
ENCODING 221
SWIDTH 1000 0
DWIDTH 8 0
BBX 8 8 0 0
VVECTOR 4 8
SWIDTH1 0 -1000
DWIDTH1 0 -8
BITMAP 
00
00
22
22
3E
22
22
00
ENDCHAR
STARTCHAR Thorn
ENCODING 222
SWIDTH 1000 0
DWIDTH 8 0
BBX 8 8 0 0
VVECTOR 4 8
SWIDTH1 0 -1000
DWIDTH1 0 -8
BITMAP 
00
00
1C
22
22
22
1C
00
ENDCHAR
STARTCHAR germandbls
ENCODING 223
SWIDTH 1000 0
DWIDTH 8 0
BBX 8 8 0 0
VVECTOR 4 8
SWIDTH1 0 -1000
DWIDTH1 0 -8
BITMAP 
00
00
3E
22
22
22
22
00
ENDCHAR
STARTCHAR agrave
ENCODING 224
SWIDTH 1000 0
DWIDTH 8 0
BBX 8 8 0 0
VVECTOR 4 8
SWIDTH1 0 -1000
DWIDTH1 0 -8
BITMAP 
00
00
3C
22
22
3C
20
20
ENDCHAR
STARTCHAR aacute
ENCODING 225
SWIDTH 1000 0
DWIDTH 8 0
BBX 8 8 0 0
VVECTOR 4 8
SWIDTH1 0 -1000
DWIDTH1 0 -8
BITMAP 
00
00
1E
20
20
20
1E
00
ENDCHAR
STARTCHAR acircumflex
ENCODING 226
SWIDTH 1000 0
DWIDTH 8 0
BBX 8 8 0 0
VVECTOR 4 8
SWIDTH1 0 -1000
DWIDTH1 0 -8
BITMAP 
00
00
3E
08
08
08
08
00
ENDCHAR
STARTCHAR atilde
ENCODING 227
SWIDTH 1000 0
DWIDTH 8 0
BBX 8 8 0 0
VVECTOR 4 8
SWIDTH1 0 -1000
DWIDTH1 0 -8
BITMAP 
00
00
22
22
1E
02
02
1C
ENDCHAR
STARTCHAR adieresis
ENCODING 228
SWIDTH 1000 0
DWIDTH 8 0
BBX 8 8 0 0
VVECTOR 4 8
SWIDTH1 0 -1000
DWIDTH1 0 -8
BITMAP 
00
00
08
3E
2A
3E
08
08
ENDCHAR
STARTCHAR aring
ENCODING 229
SWIDTH 1000 0
DWIDTH 8 0
BBX 8 8 0 0
VVECTOR 4 8
SWIDTH1 0 -1000
DWIDTH1 0 -8
BITMAP 
00
00
22
14
08
14
22
00
ENDCHAR
STARTCHAR ae
ENCODING 230
SWIDTH 1000 0
DWIDTH 8 0
BBX 8 8 0 0
VVECTOR 4 8
SWIDTH1 0 -1000
DWIDTH1 0 -8
BITMAP 
00
00
24
24
24
24
3E
02
ENDCHAR
STARTCHAR ccedilla
ENCODING 231
SWIDTH 1000 0
DWIDTH 8 0
BBX 8 8 0 0
VVECTOR 4 8
SWIDTH1 0 -1000
DWIDTH1 0 -8
BITMAP 
00
00
22
22
1E
02
02
00
ENDCHAR
STARTCHAR egrave
ENCODING 232
SWIDTH 1000 0
DWIDTH 8 0
BBX 8 8 0 0
VVECTOR 4 8
SWIDTH1 0 -1000
DWIDTH1 0 -8
BITMAP 
00
00
2A
2A
2A
2A
3E
00
ENDCHAR
STARTCHAR eacute
ENCODING 233
SWIDTH 1000 0
DWIDTH 8 0
BBX 8 8 0 0
VVECTOR 4 8
SWIDTH1 0 -1000
DWIDTH1 0 -8
BITMAP 
00
00
2A
2A
2A
2A
3E
02
ENDCHAR
STARTCHAR ecircumflex
ENCODING 234
SWIDTH 1000 0
DWIDTH 8 0
BBX 8 8 0 0
VVECTOR 4 8
SWIDTH1 0 -1000
DWIDTH1 0 -8
BITMAP 
00
00
30
10
1C
12
1C
00
ENDCHAR
STARTCHAR edieresis
ENCODING 235
SWIDTH 1000 0
DWIDTH 8 0
BBX 8 8 0 0
VVECTOR 4 8
SWIDTH1 0 -1000
DWIDTH1 0 -8
BITMAP 
00
00
22
22
3A
2A
3A
00
ENDCHAR
STARTCHAR igrave
ENCODING 236
SWIDTH 1000 0
DWIDTH 8 0
BBX 8 8 0 0
VVECTOR 4 8
SWIDTH1 0 -1000
DWIDTH1 0 -8
BITMAP 
00
00
20
20
38
24
38
00
ENDCHAR
STARTCHAR iacute
ENCODING 237
SWIDTH 1000 0
DWIDTH 8 0
BBX 8 8 0 0
VVECTOR 4 8
SWIDTH1 0 -1000
DWIDTH1 0 -8
BITMAP 
00
00
3C
02
1E
02
3C
00
ENDCHAR
STARTCHAR icircumflex
ENCODING 238
SWIDTH 1000 0
DWIDTH 8 0
BBX 8 8 0 0
VVECTOR 4 8
SWIDTH1 0 -1000
DWIDTH1 0 -8
BITMAP 
00
00
2E
2A
3A
2A
2E
00
ENDCHAR
STARTCHAR idieresis
ENCODING 239
SWIDTH 1000 0
DWIDTH 8 0
BBX 8 8 0 0
VVECTOR 4 8
SWIDTH1 0 -1000
DWIDTH1 0 -8
BITMAP 
00
00
1E
22
1E
12
22
00
ENDCHAR
STARTCHAR eth
ENCODING 240
SWIDTH 1000 0
DWIDTH 8 0
BBX 8 8 0 0
VVECTOR 4 8
SWIDTH1 0 -1000
DWIDTH1 0 -8
BITMAP 
14
14
14
14
FF
14
14
14
ENDCHAR
STARTCHAR ntilde
ENCODING 241
SWIDTH 1000 0
DWIDTH 8 0
BBX 8 8 0 0
VVECTOR 4 8
SWIDTH1 0 -1000
DWIDTH1 0 -8
BITMAP 
14
00
1C
22
3E
20
1E
00
ENDCHAR
STARTCHAR ograve
ENCODING 242
SWIDTH 1000 0
DWIDTH 8 0
BBX 8 8 0 0
VVECTOR 4 8
SWIDTH1 0 -1000
DWIDTH1 0 -8
BITMAP 
08
08
3E
08
08
00
3E
00
ENDCHAR
STARTCHAR oacute
ENCODING 243
SWIDTH 1000 0
DWIDTH 8 0
BBX 8 8 0 0
VVECTOR 4 8
SWIDTH1 0 -1000
DWIDTH1 0 -8
BITMAP 
00
00
08
00
3E
00
08
00
ENDCHAR
STARTCHAR ocircumflex
ENCODING 244
SWIDTH 1000 0
DWIDTH 8 0
BBX 8 8 0 0
VVECTOR 4 8
SWIDTH1 0 -1000
DWIDTH1 0 -8
BITMAP 
0C
12
12
0C
00
00
00
00
ENDCHAR
STARTCHAR otilde
ENCODING 245
SWIDTH 1000 0
DWIDTH 8 0
BBX 8 8 0 0
VVECTOR 4 8
SWIDTH1 0 -1000
DWIDTH1 0 -8
BITMAP 
0C
12
04
08
1E
00
00
00
ENDCHAR
STARTCHAR odieresis
ENCODING 246
SWIDTH 1000 0
DWIDTH 8 0
BBX 8 8 0 0
VVECTOR 4 8
SWIDTH1 0 -1000
DWIDTH1 0 -8
BITMAP 
1E
04
0C
02
1C
00
00
00
ENDCHAR
STARTCHAR divide
ENCODING 247
SWIDTH 1000 0
DWIDTH 8 0
BBX 8 8 0 0
VVECTOR 4 8
SWIDTH1 0 -1000
DWIDTH1 0 -8
BITMAP 
08
0C
0A
0A
08
18
38
10
ENDCHAR
STARTCHAR oslash
ENCODING 248
SWIDTH 1000 0
DWIDTH 8 0
BBX 8 8 0 0
VVECTOR 4 8
SWIDTH1 0 -1000
DWIDTH1 0 -8
BITMAP 
08
1C
2A
08
08
08
08
08
ENDCHAR
STARTCHAR ugrave
ENCODING 249
SWIDTH 1000 0
DWIDTH 8 0
BBX 8 8 0 0
VVECTOR 4 8
SWIDTH1 0 -1000
DWIDTH1 0 -8
BITMAP 
08
08
08
08
08
2A
1C
08
ENDCHAR
STARTCHAR uacute
ENCODING 250
SWIDTH 1000 0
DWIDTH 8 0
BBX 8 8 0 0
VVECTOR 4 8
SWIDTH1 0 -1000
DWIDTH1 0 -8
BITMAP 
00
00
04
02
3F
02
04
00
ENDCHAR
STARTCHAR ucircumflex
ENCODING 251
SWIDTH 1000 0
DWIDTH 8 0
BBX 8 8 0 0
VVECTOR 4 8
SWIDTH1 0 -1000
DWIDTH1 0 -8
BITMAP 
00
00
08
10
3F
10
08
00
ENDCHAR
STARTCHAR udieresis
ENCODING 252
SWIDTH 1000 0
DWIDTH 8 0
BBX 8 8 0 0
VVECTOR 4 8
SWIDTH1 0 -1000
DWIDTH1 0 -8
BITMAP 
3C
7E
FF
FF
FF
FF
7E
3C
ENDCHAR
STARTCHAR yacute
ENCODING 253
SWIDTH 1000 0
DWIDTH 8 0
BBX 8 8 0 0
VVECTOR 4 8
SWIDTH1 0 -1000
DWIDTH1 0 -8
BITMAP 
00
0C
1E
3F
3F
1E
0C
00
ENDCHAR
STARTCHAR thorn
ENCODING 254
SWIDTH 1000 0
DWIDTH 8 0
BBX 8 8 0 0
VVECTOR 4 8
SWIDTH1 0 -1000
DWIDTH1 0 -8
BITMAP 
AA
55
AA
55
AA
55
AA
55
ENDCHAR
STARTCHAR ydieresis
ENCODING 255
SWIDTH 1000 0
DWIDTH 8 0
BBX 8 8 0 0
VVECTOR 4 8
SWIDTH1 0 -1000
DWIDTH1 0 -8
BITMAP 
33
33
CC
CC
33
33
CC
CC
ENDCHAR
ENDFONT
